<svg width="49" height="48" viewBox="0 0 49 48" fill="none" xmlns="http://www.w3.org/2000/svg">
<path d="M21.9189 23.2781C21.9189 23.2781 24.1905 23.1055 24.1905 20.3874C24.1905 17.6715 22.6498 16.3327 20.2949 16.3327L12.2276 16.3199V31.3289H20.4825C20.4825 31.3289 24.61 31.4595 24.61 26.8262C24.61 26.8262 24.9132 23.2781 21.9189 23.2781ZM15.2294 18.5713H19.3569C19.3569 18.5713 20.7692 18.5945 20.7692 20.4256C20.7692 22.3235 19.3569 22.3235 19.3569 22.3235H15.2294V18.5713ZM19.7321 29.0776H15.2294V24.5749H19.7321C19.7321 24.5749 21.9834 24.5981 21.9834 26.8262C21.9834 29.0543 20.0563 29.0776 19.7321 29.0776Z" fill="white"/>
<path d="M30.989 20.0725C25.3509 20.0725 25.3607 25.7009 25.3607 25.7009C25.3607 25.7009 24.9854 31.3293 30.989 31.3293C30.989 31.3293 36.2422 31.3293 36.2422 26.8266H33.2404C33.2404 26.8266 33.2404 29.0779 30.989 29.0779C30.989 29.0779 28.7377 29.0779 28.7377 26.0761C28.7377 26.0761 34.7413 26.0761 36.2422 26.0761C36.2422 24.5752 36.2422 20.0725 30.989 20.0725ZM28.7377 24.5752C28.7377 24.5752 28.6881 22.3239 30.989 22.3239C33.2892 22.3239 33.2404 24.5752 33.2404 24.5752H28.7377Z" fill="white"/>
<path d="M33.991 17.821H27.9874V19.3219H33.991V17.821Z" fill="white"/>
</svg>
