<svg width="48" height="48" viewBox="0 0 48 48" fill="none" xmlns="http://www.w3.org/2000/svg">
<path d="M19.6303 23.9999C19.6303 21.5873 21.5868 19.6309 24.0009 19.6309C26.4149 19.6309 28.3725 21.5873 28.3725 23.9999C28.3725 26.4126 26.4149 28.3689 24.0009 28.3689C21.5868 28.3689 19.6303 26.4126 19.6303 23.9999ZM17.2671 23.9999C17.2671 27.7168 20.2818 30.7297 24.0009 30.7297C27.7199 30.7297 30.7346 27.7168 30.7346 23.9999C30.7346 20.2831 27.7199 17.2702 24.0009 17.2702C20.2818 17.2702 17.2671 20.2831 17.2671 23.9999ZM29.4275 17.0034C29.4274 17.3144 29.5196 17.6185 29.6924 17.8772C29.8652 18.1359 30.1109 18.3376 30.3984 18.4568C30.6859 18.5759 31.0023 18.6072 31.3076 18.5466C31.6129 18.486 31.8933 18.3364 32.1135 18.1165C32.3337 17.8967 32.4836 17.6165 32.5445 17.3114C32.6053 17.0064 32.5743 16.6902 32.4553 16.4027C32.3363 16.1153 32.1347 15.8696 31.876 15.6967C31.6173 15.5238 31.3131 15.4314 31.0018 15.4313H31.0012C30.584 15.4315 30.1839 15.5972 29.8889 15.8919C29.5938 16.1867 29.4279 16.5864 29.4275 17.0034V17.0034ZM18.7029 34.6678C17.4243 34.6096 16.7294 34.3968 16.2676 34.217C15.6554 33.9788 15.2185 33.695 14.7592 33.2367C14.2999 32.7783 14.0156 32.3421 13.7783 31.7302C13.5983 31.2689 13.3853 30.5742 13.3272 29.2964C13.2636 27.9149 13.2509 27.4999 13.2509 24C13.2509 20.5001 13.2647 20.0863 13.3272 18.7037C13.3854 17.4259 13.6 16.7325 13.7783 16.2699C14.0167 15.658 14.3005 15.2214 14.7592 14.7624C15.2179 14.3033 15.6543 14.0192 16.2676 13.782C16.7292 13.6021 17.4243 13.3893 18.7029 13.3312C20.0852 13.2677 20.5004 13.255 24.0009 13.255C27.5013 13.255 27.9169 13.2687 29.3004 13.3312C30.5789 13.3894 31.2727 13.6038 31.7357 13.782C32.3479 14.0192 32.7848 14.304 33.2441 14.7624C33.7034 15.2208 33.9866 15.658 34.225 16.2699C34.405 16.7312 34.618 17.4259 34.6761 18.7037C34.7397 20.0863 34.7524 20.5001 34.7524 24C34.7524 27.4999 34.7397 27.9138 34.6761 29.2964C34.6179 30.5742 34.4038 31.2687 34.225 31.7302C33.9866 32.3421 33.7027 32.7787 33.2441 33.2367C32.7854 33.6946 32.3479 33.9788 31.7357 34.217C31.2741 34.3969 30.5789 34.6097 29.3004 34.6678C27.9181 34.7314 27.5029 34.744 24.0009 34.744C20.4988 34.744 20.0848 34.7314 18.7029 34.6678V34.6678ZM18.5943 10.9734C17.1983 11.0369 16.2443 11.2582 15.4112 11.5821C14.5484 11.9167 13.8181 12.3656 13.0882 13.0938C12.3583 13.8221 11.9104 14.5532 11.5756 15.4155C11.2514 16.2486 11.0301 17.2014 10.9665 18.5966C10.9019 19.994 10.8871 20.4408 10.8871 23.9999C10.8871 27.5591 10.9019 28.0058 10.9665 29.4032C11.0301 30.7985 11.2514 31.7513 11.5756 32.5844C11.9104 33.4461 12.3584 34.1781 13.0882 34.906C13.818 35.634 14.5484 36.0822 15.4112 36.4177C16.2459 36.7417 17.1983 36.9629 18.5943 37.0265C19.9933 37.09 20.4396 37.1058 24.0009 37.1058C27.5621 37.1058 28.0092 37.091 29.4074 37.0265C30.8035 36.9629 31.7569 36.7417 32.5905 36.4177C33.4527 36.0822 34.1836 35.6343 34.9135 34.906C35.6434 34.1778 36.0904 33.4461 36.4261 32.5844C36.7503 31.7513 36.9727 30.7984 37.0352 29.4032C37.0988 28.0048 37.1136 27.5591 37.1136 23.9999C37.1136 20.4408 37.0988 19.994 37.0352 18.5966C36.9716 17.2013 36.7503 16.2481 36.4261 15.4155C36.0904 14.5537 35.6422 13.8232 34.9135 13.0938C34.1848 12.3644 33.4527 11.9167 32.5915 11.5821C31.7569 11.2582 30.8034 11.0359 29.4084 10.9734C28.0102 10.9099 27.5632 10.894 24.0019 10.894C20.4406 10.894 19.9933 10.9088 18.5943 10.9734Z" fill="white"/>
<path d="M19.6303 23.9999C19.6303 21.5873 21.5868 19.6309 24.0009 19.6309C26.4149 19.6309 28.3725 21.5873 28.3725 23.9999C28.3725 26.4126 26.4149 28.3689 24.0009 28.3689C21.5868 28.3689 19.6303 26.4126 19.6303 23.9999ZM17.2671 23.9999C17.2671 27.7168 20.2818 30.7297 24.0009 30.7297C27.7199 30.7297 30.7346 27.7168 30.7346 23.9999C30.7346 20.2831 27.7199 17.2702 24.0009 17.2702C20.2818 17.2702 17.2671 20.2831 17.2671 23.9999ZM29.4275 17.0034C29.4274 17.3144 29.5196 17.6185 29.6924 17.8772C29.8652 18.1359 30.1109 18.3376 30.3984 18.4568C30.6859 18.5759 31.0023 18.6072 31.3076 18.5466C31.6129 18.486 31.8933 18.3364 32.1135 18.1165C32.3337 17.8967 32.4836 17.6165 32.5445 17.3114C32.6053 17.0064 32.5743 16.6902 32.4553 16.4027C32.3363 16.1153 32.1347 15.8696 31.876 15.6967C31.6173 15.5238 31.3131 15.4314 31.0018 15.4313H31.0012C30.584 15.4315 30.1839 15.5972 29.8889 15.8919C29.5938 16.1867 29.4279 16.5864 29.4275 17.0034V17.0034ZM18.7029 34.6678C17.4243 34.6096 16.7294 34.3968 16.2676 34.217C15.6554 33.9788 15.2185 33.695 14.7592 33.2367C14.2999 32.7783 14.0156 32.3421 13.7783 31.7302C13.5983 31.2689 13.3853 30.5742 13.3272 29.2964C13.2636 27.9149 13.2509 27.4999 13.2509 24C13.2509 20.5001 13.2647 20.0863 13.3272 18.7037C13.3854 17.4259 13.6 16.7325 13.7783 16.2699C14.0167 15.658 14.3005 15.2214 14.7592 14.7624C15.2179 14.3033 15.6543 14.0192 16.2676 13.782C16.7292 13.6021 17.4243 13.3893 18.7029 13.3312C20.0852 13.2677 20.5004 13.255 24.0009 13.255C27.5013 13.255 27.9169 13.2687 29.3004 13.3312C30.5789 13.3894 31.2727 13.6038 31.7357 13.782C32.3479 14.0192 32.7848 14.304 33.2441 14.7624C33.7034 15.2208 33.9866 15.658 34.225 16.2699C34.405 16.7312 34.618 17.4259 34.6761 18.7037C34.7397 20.0863 34.7524 20.5001 34.7524 24C34.7524 27.4999 34.7397 27.9138 34.6761 29.2964C34.6179 30.5742 34.4038 31.2687 34.225 31.7302C33.9866 32.3421 33.7027 32.7787 33.2441 33.2367C32.7854 33.6946 32.3479 33.9788 31.7357 34.217C31.2741 34.3969 30.5789 34.6097 29.3004 34.6678C27.9181 34.7314 27.5029 34.744 24.0009 34.744C20.4988 34.744 20.0848 34.7314 18.7029 34.6678V34.6678ZM18.5943 10.9734C17.1983 11.0369 16.2443 11.2582 15.4112 11.5821C14.5484 11.9167 13.8181 12.3656 13.0882 13.0938C12.3583 13.8221 11.9104 14.5532 11.5756 15.4155C11.2514 16.2486 11.0301 17.2014 10.9665 18.5966C10.9019 19.994 10.8871 20.4408 10.8871 23.9999C10.8871 27.5591 10.9019 28.0058 10.9665 29.4032C11.0301 30.7985 11.2514 31.7513 11.5756 32.5844C11.9104 33.4461 12.3584 34.1781 13.0882 34.906C13.818 35.634 14.5484 36.0822 15.4112 36.4177C16.2459 36.7417 17.1983 36.9629 18.5943 37.0265C19.9933 37.09 20.4396 37.1058 24.0009 37.1058C27.5621 37.1058 28.0092 37.091 29.4074 37.0265C30.8035 36.9629 31.7569 36.7417 32.5905 36.4177C33.4527 36.0822 34.1836 35.6343 34.9135 34.906C35.6434 34.1778 36.0904 33.4461 36.4261 32.5844C36.7503 31.7513 36.9727 30.7984 37.0352 29.4032C37.0988 28.0048 37.1136 27.5591 37.1136 23.9999C37.1136 20.4408 37.0988 19.994 37.0352 18.5966C36.9716 17.2013 36.7503 16.2481 36.4261 15.4155C36.0904 14.5537 35.6422 13.8232 34.9135 13.0938C34.1848 12.3644 33.4527 11.9167 32.5915 11.5821C31.7569 11.2582 30.8034 11.0359 29.4084 10.9734C28.0102 10.9099 27.5632 10.894 24.0019 10.894C20.4406 10.894 19.9933 10.9088 18.5943 10.9734Z" fill="white"/>
</svg>
