<svg width="45" height="48" viewBox="0 0 45 48" fill="none" xmlns="http://www.w3.org/2000/svg">
<path d="M9.37522 19.5984C8.21569 20.1748 7.9574 21.6159 8.48242 23.1137C8.89986 24.3046 7.77743 24.2943 5.88884 23.0892C-4.11783 16.5262 -0.63076 1.30041 10.7703 0.0451129C10.9089 0.0298463 11.3879 0.00809067 11.7512 0H43.8202C44.1404 0 44.3999 0.258073 44.3999 0.576423V18.8077C44.3999 19.1261 44.1404 19.3841 43.8202 19.3841H10.9867C10.5348 19.3841 9.85015 19.3841 9.37522 19.5984Z" fill="white"/>
<path d="M35.0248 28.4016C36.1843 27.8252 36.4426 26.3841 35.9176 24.8863C35.5001 23.6954 36.6226 23.7057 38.5112 24.9108C48.5178 31.4738 45.0308 46.6996 33.6297 47.9549C33.4911 47.9702 33.0121 47.9919 32.6488 48H0.579836C0.259639 48 6.80532e-05 47.7419 6.80532e-05 47.4236V29.1923C6.80532e-05 28.8739 0.259639 28.6159 0.579835 28.6159H33.4133C33.8652 28.6159 34.5498 28.6159 35.0248 28.4016Z" fill="white"/>
</svg>
