<svg width="49" height="48" viewBox="0 0 49 48" fill="none" xmlns="http://www.w3.org/2000/svg">
<path d="M24.1138 35.2275C31.3563 35.2275 37.2275 29.3563 37.2275 22.1138C37.2275 14.8712 31.3563 9 24.1138 9C16.8712 9 11 14.8712 11 22.1138C11 29.3563 16.8712 35.2275 24.1138 35.2275Z" fill="white"/>
<path d="M16.6217 21.8265C16.6217 21.8265 23.1175 19.063 25.3704 18.0899C26.2341 17.7006 29.1628 16.455 29.1628 16.455C29.1628 16.455 30.5146 15.9101 30.4019 17.2335C30.3644 17.7785 30.064 19.6857 29.7636 21.7487C29.313 24.668 28.8249 27.8597 28.8249 27.8597C28.8249 27.8597 28.7498 28.755 28.1115 28.9107C27.4732 29.0664 26.4218 28.3658 26.2341 28.2101C26.0838 28.0933 23.4179 26.3417 22.4417 25.4854C22.1788 25.2519 21.8784 24.7848 22.4792 24.2398C23.831 22.9553 25.4455 21.3595 26.4218 20.3475C26.8724 19.8804 27.3229 18.7905 25.4455 20.1139C22.7796 22.0212 20.1512 23.8117 20.1512 23.8117C20.1512 23.8117 19.5504 24.2009 18.424 23.8506C17.2975 23.5003 15.9833 23.0332 15.9833 23.0332C15.9833 23.0332 15.0822 22.4493 16.6217 21.8265Z" fill="#212126"/>
</svg>
