<svg width="48" height="48" viewBox="0 0 48 48" fill="none" xmlns="http://www.w3.org/2000/svg">
<path d="M12.0001 35.0402L13.722 28.6433C12.3333 26.1513 11.8921 23.2435 12.4794 20.4533C13.0666 17.6631 14.6429 15.1777 16.9191 13.4532C19.1952 11.7287 22.0185 10.8807 24.8708 11.065C27.7231 11.2492 30.4132 12.4532 32.4474 14.4561C34.4815 16.459 35.7233 19.1264 35.9449 21.9689C36.1665 24.8113 35.353 27.6382 33.6537 29.9306C31.9544 32.2231 29.4833 33.8275 26.6938 34.4493C23.9043 35.0711 20.9836 34.6687 18.4675 33.3159L12.0001 35.0402ZM18.7794 30.9221L19.1794 31.1588C21.0018 32.2362 23.1303 32.6821 25.2333 32.4269C27.3363 32.1717 29.2956 31.2298 30.8059 29.7479C32.3161 28.266 33.2925 26.3275 33.5829 24.2343C33.8733 22.1411 33.4613 20.011 32.4112 18.1757C31.3611 16.3405 29.7319 14.9032 27.7774 14.088C25.8229 13.2728 23.653 13.1254 21.6057 13.6687C19.5584 14.2121 17.7489 15.4156 16.459 17.0919C15.1691 18.7682 14.4714 20.823 14.4745 22.9361C14.4728 24.6882 14.9586 26.4064 15.8778 27.8994L16.1287 28.3119L15.166 31.8823L18.7794 30.9221Z" fill="white"/>
<path fill-rule="evenodd" clip-rule="evenodd" d="M28.4872 24.5786C28.2527 24.39 27.9781 24.2572 27.6844 24.1904C27.3907 24.1236 27.0856 24.1246 26.7923 24.1932C26.3517 24.3758 26.0669 25.0655 25.7822 25.4104C25.7222 25.4931 25.6339 25.551 25.5341 25.5734C25.4342 25.5959 25.3296 25.5812 25.2399 25.5321C23.6266 24.9018 22.2744 23.7461 21.4028 22.2525C21.3284 22.1593 21.2933 22.041 21.3046 21.9224C21.316 21.8038 21.3731 21.6943 21.4638 21.6169C21.7814 21.3033 22.0145 20.9149 22.1417 20.4876C22.17 20.0163 22.0617 19.5468 21.8299 19.1352C21.6506 18.5581 21.3095 18.0442 20.8469 17.6543C20.6082 17.5472 20.3437 17.5113 20.085 17.5509C19.8264 17.5905 19.5848 17.7039 19.3893 17.8774C19.05 18.1695 18.7807 18.5337 18.6012 18.9433C18.4216 19.3529 18.3365 19.7974 18.3521 20.2442C18.3531 20.495 18.385 20.7448 18.447 20.988C18.6044 21.5722 18.8465 22.1303 19.1656 22.6447C19.3958 23.0387 19.647 23.4202 19.9181 23.7875C20.7991 24.9938 21.9066 26.0181 23.179 26.8034C23.8175 27.2024 24.4999 27.5269 25.2128 27.7703C25.9533 28.1052 26.7709 28.2337 27.5787 28.1423C28.039 28.0728 28.4751 27.8915 28.8487 27.6144C29.2222 27.3373 29.5218 26.9729 29.721 26.5532C29.838 26.2996 29.8735 26.0162 29.8227 25.7417C29.7007 25.1805 28.9482 24.8491 28.4872 24.5786Z" fill="white"/>
</svg>
